<?xml version="1.0" encoding="UTF-8"?>
<svg id="Layer_2" data-name="Layer 2" xmlns="http://www.w3.org/2000/svg" viewBox="0 0 219.71 219.71">
  <defs>
    <style>
      .cls-1 {
        fill: #67bbe8;
      }

      .cls-1, .cls-2 {
        stroke-width: 0px;
      }

      .cls-2 {
        fill: #fff;
      }
    </style>
  </defs>
  <g id="Layer_5" data-name="Layer 5">
    <g>
      <circle class="cls-1" cx="109.86" cy="109.86" r="109.86"/>
      <g>
        <path class="cls-2" d="M157.73,70.48H37.26c-2.32,0-4.2,1.88-4.2,4.2v70.36c0,2.32,1.88,4.2,4.2,4.2h145.2c2.32,0,4.2-1.88,4.2-4.2v-70.36c0-2.32-1.88-4.2-4.2-4.2h-24.72ZM182.46,145.04H37.26v-70.36h145.2v70.36Z"/>
        <path class="cls-2" d="M136.47,81.94h-14.21c-.59-.33-1.18-.66-1.8-.95-6.75-3.21-14.45-3.21-21.19,0-.61.29-1.21.61-1.8.95h-38.94c0,8.32-6.74,15.07-15.06,15.07v25.7c8.32,0,15.06,6.74,15.06,15.07h38.94c.59.34,1.19.66,1.8.95,3.38,1.61,6.94,2.42,10.59,2.42s7.22-.81,10.59-2.42c.62-.29,1.21-.61,1.8-.95h38.94c0-8.32,6.74-15.07,15.06-15.07v-25.7c-8.32,0-15.06-6.75-15.06-15.07h-24.72ZM83.25,133.57h-20.98c-1.62-7.26-7.35-12.98-14.6-14.6v-18.22c7.25-1.62,12.98-7.35,14.6-14.6h29.68c-5.97,5.84-9.56,14.41-9.56,23.71s3.59,17.88,9.56,23.71h-8.7ZM119.54,136.82c-6.17,2.94-13.19,2.94-19.38,0-9.53-4.53-15.68-15.12-15.68-26.97s6.16-22.43,15.68-26.97c3.09-1.47,6.35-2.21,9.69-2.21s6.6.74,9.69,2.21c9.53,4.54,15.68,15.12,15.68,26.97s-6.16,22.43-15.69,26.97ZM172.05,100.75v18.22c-7.26,1.62-12.98,7.35-14.6,14.6h-29.68c5.97-5.84,9.57-14.41,9.57-23.71s-3.59-17.88-9.57-23.71h29.68c1.62,7.26,7.34,12.98,14.6,14.6Z"/>
        <path class="cls-2" d="M117.75,108.44c-1.35-1.12-3.04-2.08-5.31-3-2.09-.86-3.44-1.57-4.12-2.17-.35-.31-.48-.52-.55-.67-.07-.15-.14-.36-.14-.78,0-.29.07-.84.53-1.29.52-.5,1.37-.76,2.53-.76,1.16,0,2.23.17,3.25.51.8.27,1.41.59,1.95.9l1.23.71c.27.15.59.18.88.08.29-.11.52-.33.63-.62l2.12-5.59c.18-.48,0-1.02-.45-1.28l-.88-.51c-1.6-.95-3.42-1.57-5.41-1.88v-4.01c0-.58-.47-1.05-1.05-1.05h-5.53c-.58,0-1.05.47-1.05,1.05v4.49c-1.94.6-3.63,1.63-4.9,2.99-1.72,1.83-2.67,4.27-2.67,6.86,0,1.38.26,2.66.76,3.82.7,1.6,1.91,3.02,3.59,4.22,1.36.96,3.06,1.84,5.35,2.73,2.03.82,3,1.54,3.46,2.01.28.28.47.56.6.86.13.3.19.62.19,1,0,.75-.27,1.33-.84,1.8-.67.56-1.69.86-2.87.86h-.02c-2.06,0-4.28-.67-5.95-1.78l-1.29-.86c-.27-.18-.61-.22-.91-.12-.31.1-.55.34-.66.64l-2.04,5.68c-.16.44,0,.94.38,1.21l.74.53c1.1.78,2.47,1.41,4.09,1.89.86.25,1.75.44,2.64.56v4.19c0,.58.47,1.05,1.05,1.05h5.58c.58,0,1.05-.47,1.05-1.05v-4.64c2.14-.67,3.98-1.83,5.34-3.39h0c1.66-1.91,2.58-4.37,2.58-6.92,0-1.37-.21-2.65-.62-3.79-.61-1.71-1.71-3.22-3.25-4.48ZM117.45,122.24c-1.25,1.43-3,2.45-5.06,2.95-.47.12-.8.54-.8,1.02v4.39h-3.48v-4.08c0-.54-.42-1-.96-1.05-1.08-.09-2.15-.3-3.19-.6-1.39-.4-2.55-.94-3.46-1.58l-.1-.07,1.31-3.67.16.11c2,1.34,4.66,2.14,7.12,2.14h.02c1.68,0,3.18-.48,4.23-1.36,1.03-.88,1.57-2.02,1.58-3.4,0-.67-.12-1.26-.35-1.82-.23-.55-.58-1.05-1.04-1.51-.87-.88-2.27-1.72-4.18-2.48-2.13-.83-3.69-1.63-4.9-2.49-1.39-.99-2.34-2.09-2.89-3.35-.39-.89-.59-1.9-.59-2.99,0-2.06.74-3.98,2.1-5.42,1.17-1.25,2.79-2.15,4.68-2.61.47-.11.8-.54.8-1.02v-4.25h3.43v3.89c0,.54.41,1,.95,1.05,2.06.2,3.91.77,5.5,1.71l.11.07-1.37,3.61-.16-.09c-.63-.36-1.35-.74-2.32-1.07-1.24-.41-2.52-.62-3.92-.62-1.73,0-3.07.46-3.99,1.36-.75.73-1.16,1.72-1.16,2.8,0,.64.11,1.17.34,1.67.23.5.57.93,1.07,1.36.88.78,2.33,1.56,4.71,2.54,2.07.84,3.59,1.69,4.78,2.68,1.25,1.02,2.12,2.22,2.61,3.57.33.91.5,1.95.5,3.08,0,2.04-.73,4.01-2.06,5.54Z"/>
      </g>
    </g>
  </g>
</svg>