<?xml version="1.0" encoding="UTF-8"?>
<svg id="Layer_2" data-name="Layer 2" xmlns="http://www.w3.org/2000/svg" viewBox="0 0 219.71 219.71">
  <defs>
    <style>
      .cls-1 {
        fill: #67bbe8;
      }

      .cls-1, .cls-2 {
        stroke-width: 0px;
      }

      .cls-2 {
        fill: #fff;
      }
    </style>
  </defs>
  <g id="Layer_5" data-name="Layer 5">
    <g>
      <circle class="cls-1" cx="109.86" cy="109.86" r="109.86"/>
      <g>
        <path class="cls-2" d="M95.6,88.02c.18.77.72,1.38,1.46,1.65.74.25,1.58.12,2.17-.36l5.99-4.74v29.26h-7.51c-.6,0-1.19.24-1.6.66-.43.42-.67,1.01-.67,1.61v7.35c0,.6.24,1.19.66,1.6.42.43,1.01.67,1.61.67h30.82c.62,0,1.19-.24,1.6-.66.43-.43.67-1,.67-1.61v-7.35c0-.61-.24-1.18-.66-1.6-.43-.44-1-.67-1.62-.67h-7.47v-44.2c0-.61-.24-1.19-.65-1.59-.43-.44-1-.68-1.62-.68h-9.68c-.47,0-.92.14-1.3.4l-13.21,9.14c-.76.53-1.13,1.45-.93,2.36l1.93,8.77ZM109.18,69.88h9.35v46.48h9.74v6.84h-30.31v-6.84h9.78v-37.01l-9.77,7.73-1.8-8.19,13-9Z"/>
        <path class="cls-2" d="M35.47,155.56c.28.83,1.02,1.4,1.89,1.48l19.28,1.56.6,17.89c.03.85.55,1.61,1.33,1.94.27.12.57.17.85.17.53,0,1.05-.19,1.46-.56l35.88-32.35,1.72,4.72c.84,2.3,2.54,3.67,4.56,3.67,1.49,0,2.95-.78,4.11-2.2l6.37-7.8c.53-.65,1.3-1.02,2.11-1.02.48,0,1.18.12,1.84.73l7.46,6.77c1.16,1.05,2.47,1.62,3.75,1.62.88,0,1.84-.28,2.68-.94l25.95,28.77c.42.47,1.01.72,1.62.72.22,0,.45-.03.66-.1.82-.26,1.4-.98,1.51-1.83l2.05-17.5,19.22-1.78c.82-.08,1.53-.61,1.83-1.38.3-.77.14-1.64-.41-2.26l-31.9-35.37c.04-.08.06-.16.11-.23.37-.64.99-1.1,1.75-1.27l9.8-2.29c2.08-.49,3.56-1.72,4.05-3.39.49-1.67-.07-3.5-1.55-5.04l-6.98-7.26c-.53-.56-.81-1.28-.77-2.02.03-.75.37-1.43.96-1.94l7.62-6.59c1.61-1.4,2.35-3.17,2.01-4.88-.34-1.71-1.69-3.08-3.71-3.75l-9.55-3.19c-.73-.25-1.31-.76-1.63-1.43-.31-.67-.33-1.44-.04-2.16l3.68-9.37c.73-1.86.63-3.64-.28-4.98-1.05-1.53-2.86-2.25-5.23-1.86l-9.94,1.61c-1.59.26-2.98-.83-3.15-2.4l-1.09-10.01c-.36-3.3-2.56-4.78-4.59-4.78-1.15,0-2.36.44-3.47,1.28l-8.05,6.04c-1.25.93-3.04.62-3.91-.66l-5.62-8.36c-1.13-1.67-2.65-2.59-4.29-2.59-1.87,0-3.5,1.19-4.47,3.25l-4.33,9.1c-.66,1.39-2.38,1.97-3.76,1.23l-8.86-4.79c-2.26-1.22-4.64-1-6.09.51-.67.7-1.46,1.99-1.37,4.14l.4,10.07c.03.76-.23,1.48-.75,2.01-.51.53-1.22.83-2.02.83l-10.17-.12c-2.1,0-3.79.85-4.64,2.34-.87,1.5-.75,3.4.3,5.25l5.03,8.73c.38.67.48,1.43.27,2.14-.21.72-.71,1.3-1.4,1.66l-8.97,4.57c-1.9.97-3.04,2.52-3.12,4.26-.07,1.73.91,3.38,2.71,4.53l8.51,5.39c.65.41,1.09,1.04,1.23,1.77.15.73-.02,1.48-.47,2.11l-5.83,8.22c-1.23,1.74-1.51,3.65-.78,5.22.73,1.58,2.37,2.58,4.5,2.75l4.05.33-31.93,28.79c-.65.59-.89,1.5-.61,2.33ZM152.56,138.24c.14-.14.27-.3.38-.45.37-.26.71-.55.99-.92.93-1.24,1.16-2.94.62-4.78l-.9-3.12,23.98,26.6-16.64,1.54c-1.03.09-1.85.9-1.97,1.92l-1.69,14.47-23.88-26.47,1.86-9.07c.07-.33.2-.63.37-.9.59-.31,1.26-.39,1.93-.22l9.75,2.53h0c2.08.54,3.98.13,5.2-1.13ZM64.29,119.86c-.67-.06-.94-.25-.97-.29,0-.02,0-.05,0-.09h0c.02-.14.1-.44.4-.85l5.83-8.21c.28-.4.52-.82.71-1.25.57-1.3.74-2.74.46-4.17-.37-1.89-1.49-3.51-3.14-4.55l-8.51-5.39c-.28-.18-.45-.34-.56-.46,0,0,0,0,0,0-.11-.13-.15-.21-.15-.23.01-.06.19-.35.79-.65l4.61-2.35,4.36-2.22c1.75-.89,3.01-2.4,3.56-4.25.52-1.76.32-3.62-.55-5.26-.04-.08-.08-.16-.12-.23l-5.03-8.73c-.25-.44-.31-.74-.32-.88,0-.05,0-.08,0-.09.01-.01.05-.03.1-.06.13-.06.41-.15.9-.15l2.59.03,7.57.09c1.94,0,3.74-.76,5.06-2.14.66-.69,1.16-1.49,1.49-2.36.03-.08.04-.17.07-.26.27-.8.41-1.65.37-2.53l-.4-10.06c-.03-.68.13-.97.27-1.01.1,0,.41.03.89.29l7.28,3.93,1.59.86c.11.06.22.1.33.15.95.45,1.99.7,3.03.7,1.82,0,3.49-.7,4.76-1.9.62-.59,1.16-1.3,1.55-2.11l4.32-9.1c.08-.18.16-.31.24-.42.14-.2.25-.31.31-.35.02-.02.05-.03.05-.03.02,0,.09.03.16.08.04.03.08.06.13.1.12.11.28.26.45.52l3.81,5.67,1.81,2.69c.44.65.98,1.2,1.58,1.67,1.2.92,2.68,1.45,4.22,1.45.45,0,.9-.06,1.34-.14,1.03-.2,2.02-.62,2.88-1.28l3.29-2.47,4.76-3.57c.44-.34.72-.4.85-.42.03,0,.06,0,.07,0,.05.04.25.3.33.97l1.09,10.01c.16,1.48.77,2.81,1.69,3.86.34.39.73.73,1.14,1.04,1.44,1.06,3.3,1.58,5.26,1.26l9.95-1.61c.55-.09.98.03,1.01.05,0,.02.02.05.02.08.02.14.02.44-.17.94l-3.68,9.37c-.09.22-.17.45-.23.68h0c-.02.06-.02.11-.04.16-.34,1.29-.3,2.62.11,3.88.09.28.19.55.31.81.15.33.35.63.55.92.85,1.28,2.09,2.25,3.59,2.75l7.13,2.39,2.43.81c.43.14.66.3.77.41.06.05.1.09.11.11,0,.04-.06.2-.23.42-.09.12-.21.25-.38.4l-4.78,4.13-2.84,2.45c-1.48,1.28-2.35,3.04-2.44,4.97-.09,1.93.6,3.77,1.96,5.18l6.98,7.26c.46.48.53.81.53.86h0s-.02.03-.05.05c0,0,0,.01-.02.02h0c-.11.1-.37.26-.86.37l-9.8,2.29c-1.9.44-3.49,1.61-4.47,3.27-.22.37-.39.75-.53,1.15,0,.02,0,.03-.02.04-.14.39-.24.8-.31,1.22h0c-.9,1.47-1.32,2.65-.91,4.04l2.8,9.67h0l-9.6-2.49c-.39-.1-.79-.16-1.19-.19-.2-.02-.4-.04-.6-.04h0c-.37,0-.73.04-1.08.09-.08.01-.16.02-.23.03-.31.06-.61.14-.91.24-.12.04-.24.09-.37.14-.19.08-.37.16-.55.25-.23.12-.46.25-.68.4-.07.05-.15.1-.22.15-.34.24-.66.51-.95.81h0c-1.52,1.04-2.56,2.59-2.94,4.41l-1.74,8.48c-.09.45-.03.92.16,1.33h0c-.07-.03-.15-.08-.24-.14-.02,0-.03-.02-.05-.03-.1-.07-.22-.16-.34-.27l-7.46-6.77c-.55-.5-1.18-.88-1.84-1.19-.9-.41-1.87-.65-2.87-.65-1.21,0-2.37.33-3.4.9-.35.2-.69.42-1,.68-.37.3-.71.64-1.02,1.01l-6.38,7.8c-.08.11-.17.19-.24.26-.09.09-.18.16-.25.22,0,0-.02.02-.02.02,0,0-.01,0-.02.01-.12.08-.21.12-.25.12h0s-.04-.03-.08-.06c0,0,0,0,0,0-.11-.1-.29-.34-.46-.8l-2.33-6.36c.59-.6.8-1.48.5-2.28l-.16-.44c-.67-1.85-2.03-3.29-3.81-4.06-.61-.26-1.24-.43-1.87-.51h0c-.36-.13-.73-.23-1.12-.3,0,0-.02,0-.03,0-.39-.07-.79-.11-1.2-.11-.48,0-.94.05-1.41.14,0,0,0,0,0,0-.46.09-.92.24-1.36.42h0s-8.9,3.79-8.9,3.79c0-.09,0-.17.02-.27l1.34-9.98h0c.26-1.96-.27-3.87-1.49-5.38-1.13-1.4-2.74-2.27-4.53-2.51h0c-.24-.09-.49-.16-.74-.22-.35-.09-.71-.17-1.09-.2l-3.39-.27-6.64-.54ZM73.14,125.7l2.22-.27c.2.14.39.3.55.5.47.58.67,1.32.56,2.09l-1.33,9.98c-.23,1.75.16,3.32,1.11,4.4.68.77,1.6,1.25,2.64,1.4,1.33.69,2.99.68,4.7-.04l9.26-3.94c.35-.15.72-.22,1.08-.22.49.31.9.77,1.12,1.36l.11.31-33.7,30.39-.51-15.14c-.04-1.11-.9-2.01-2.01-2.1l-16.17-1.32,30.37-27.39Z"/>
      </g>
    </g>
  </g>
</svg>