<?xml version="1.0" encoding="UTF-8"?>
<svg id="Layer_2" data-name="Layer 2" xmlns="http://www.w3.org/2000/svg" viewBox="0 0 219.71 219.71">
  <defs>
    <style>
      .cls-1 {
        fill: #67bbe8;
      }

      .cls-1, .cls-2 {
        stroke-width: 0px;
      }

      .cls-2 {
        fill: #fff;
      }
    </style>
  </defs>
  <g id="Layer_5" data-name="Layer 5">
    <g>
      <circle class="cls-1" cx="109.86" cy="109.86" r="109.86"/>
      <g>
        <path class="cls-2" d="M156.03,63.78h-31.93c-2.87,0-5.5,1.08-7.5,2.84v-5.75H50.26v58.24c-3.2,1.28-5.47,4.4-5.47,8.05v7.15c0,4.79,3.89,8.67,8.67,8.67h7.52c0,.07,0,.13,0,.2,0,8.62,7.01,15.63,15.63,15.63s15.63-7.01,15.63-15.63c0-.07,0-.13-.01-.2h40.72c0,.07-.01.13-.01.2,0,8.62,7.01,15.63,15.63,15.63s15.63-7.01,15.63-15.63c0-.68-.06-1.35-.14-2,6.42-3.02,10.88-9.54,10.88-17.09v-41.43c0-10.42-8.48-18.9-18.9-18.9ZM54.14,64.77h58.57v53.74h-58.57v-53.74ZM76.6,154.95c-6.47,0-11.75-5.27-11.75-11.74s5.27-11.75,11.75-11.75,11.74,5.27,11.74,11.75-5.27,11.74-11.74,11.74ZM148.56,154.95c-6.48,0-11.74-5.27-11.74-11.74s5.27-11.75,11.74-11.75,11.74,5.27,11.74,11.75-5.27,11.74-11.74,11.74ZM171.04,124.11c0,5.75-3.25,10.74-8,13.26-2.32-5.73-7.93-9.79-14.49-9.79-7.2,0-13.27,4.91-15.07,11.55h-41.82c-1.8-6.64-7.87-11.55-15.07-11.55s-13.27,4.91-15.07,11.55h-8.07c-2.64,0-4.79-2.15-4.79-4.79v-7.15c0-2.64,2.15-4.79,4.79-4.79h63.14v-47.22c0-4.14,3.37-7.5,7.5-7.5h31.93c8.28,0,15.01,6.73,15.01,15.01v41.43Z"/>
        <path class="cls-2" d="M76.6,135.67c-4.16,0-7.54,3.38-7.54,7.54s3.38,7.53,7.54,7.53,7.53-3.38,7.53-7.53-3.38-7.54-7.53-7.54ZM76.6,146.85c-2.01,0-3.65-1.64-3.65-3.65s1.64-3.65,3.65-3.65,3.65,1.64,3.65,3.65-1.64,3.65-3.65,3.65Z"/>
        <path class="cls-2" d="M148.56,135.67c-4.15,0-7.53,3.38-7.53,7.54s3.38,7.53,7.53,7.53,7.54-3.38,7.54-7.53-3.38-7.54-7.54-7.54ZM148.56,146.85c-2.01,0-3.65-1.64-3.65-3.65s1.64-3.65,3.65-3.65,3.65,1.64,3.65,3.65-1.64,3.65-3.65,3.65Z"/>
        <path class="cls-2" d="M154.01,79.98h-9.1v-.11h-21.79v27.63h30.89c5.62,0,10.18-4.57,10.18-10.18v-7.15c0-5.61-4.57-10.18-10.18-10.18ZM160.3,97.32c0,3.47-2.82,6.3-6.3,6.3h-27v-19.86h14.02v.12h12.98c3.47,0,6.3,2.83,6.3,6.3v7.15Z"/>
      </g>
    </g>
  </g>
</svg>