<?xml version="1.0" encoding="UTF-8"?>
<svg id="Layer_2" data-name="Layer 2" xmlns="http://www.w3.org/2000/svg" viewBox="0 0 219.71 219.71">
  <defs>
    <style>
      .cls-1 {
        fill: #67bbe8;
      }

      .cls-1, .cls-2 {
        stroke-width: 0px;
      }

      .cls-2 {
        fill: #fff;
      }
    </style>
  </defs>
  <g id="Layer_5" data-name="Layer 5">
    <g>
      <circle class="cls-1" cx="109.86" cy="109.86" r="109.86"/>
      <path class="cls-2" d="M135.09,60.77c-.64-.09-1.29-.15-1.93-.2-4.58-1.86-12.74-3.17-22.32,4.2l-.23.2-3.14,3.16c-11.83-8.03-21.22-3.08-23.87-1.34l-11.79-11.78-37.15,37.15,14.08,14.08c.11,6.31,2.35,12.78,6.71,19.33,1.79,2.69,3.89,5.17,6.16,7.48,2.91,2.94,5.85,5.85,8.77,8.77-3.17,4.62-1.81,8.44,1.49,11.88,3.43,3.57,6.59,3.99,11.23,2.64.04-.01.09,0,.11.04,3.33,4.99,6.41,7.41,9.73,7.67,1.38,1.34,2.74,2.69,4.12,4.03,4.1,3.96,10.35,4.84,15.3,2.01,2.14-1.22,2.5-2.23,3.59-3.97,8.36,7.02,13.94,7.15,20.51-2.7.03-.04.07-.05.11-.04,4.65,1.35,7.8.93,11.23-2.64,3.49-3.63,4.82-7.69.92-12.67-.03-.04-1.04-1.35-.99-1.34,2.78.09,4.98-1.68,6.2-3.26,3.23-4.18,3.03-8.58-.43-12.9,1.52-1.52,3.05-3.03,4.56-4.56,2.27-2.31,4.37-4.79,6.17-7.48,4.36-6.54,6.61-13.01,6.71-19.32l14.08-14.09-37.15-37.15-12.81,12.81ZM63.88,127.65c-4.27-4.51-7.48-9.5-8.88-15.15-.31-1.26-.53-2.55-.66-3.88-.1-1.08-.14-2.19-.1-3.33l-14.28-14.28,30.71-30.71,9.84,9.84.65.65-.04.1,4.75.4.31-.77c1.87-1.28,9.66-5.6,20.05,2.32l13.75,13.81c.69.7,1.07,1.62,1.06,2.61,0,.99-.38,1.91-1.08,2.6l-.91.91c-1.44,1.43-3.78,1.43-5.21-.01l-14.07-14.13-3.42,2.39,3.81,4.46,1.65,1.66c-1.62,1.62-3.23,3.23-4.85,4.85-.41.4-.63.84-.75,1.28-.08.09-.16.17-.24.25-9.45,9.47-18.94,18.91-28.37,28.4-1.89,1.9-3.13,3.82-3.74,5.73ZM109.48,165.97c-1.09,1.03-2.2,1.66-3.83,1.54-2.25-.17-3.81-1.89-4.89-2.96-.67-.65-1.32-1.31-1.99-1.97,1.56-.84,3.2-2,4.98-3.49,1.1,1.74,1.46,2.75,3.59,3.97.96.55,1.97.96,3,1.23-.18.69-.46,1.31-.86,1.69ZM129.75,164.07c-2.11,2.48-4.52,2.69-7.6-.16-.48-.45-.95-.9-1.42-1.35.68-.45,1.32-.95,1.92-1.52,1.77-1.7,3.51-3.43,5.27-5.14.19.19.37.37.56.56,2.9,2.91,3.28,5.25,1.29,7.61ZM144.44,156.38c-2.13,2.91-5.39,2.98-8.31.07-1.45-1.45-2.9-2.9-4.35-4.34,2.39-2.34,4.79-4.66,7.17-7.01,1.34,1.35,2.7,2.69,4.04,4.04,2.59,2.6,3.03,5.06,1.44,7.24ZM150.39,139.16c-1.09,2.71-4.31,3.99-6.86,2.58-.25-.14-.48-.3-.72-.46,2.3-2.28,4.58-4.59,6.87-6.88.99,1.31,1.5,2.78.71,4.75ZM179.75,83.97l-14.28,14.29c.03,1.13,0,2.24-.1,3.33-.12,1.33-.35,2.62-.66,3.88-1.41,5.68-4.63,10.69-8.94,15.21-5.83,6.14-11.95,12.01-17.93,18-6.29,6.28-12.54,12.6-18.88,18.83-1.09,1.07-2.65,2.79-4.89,2.97-1.63.12-2.74-.51-3.83-1.54-.98-.93-1.29-3.26-.91-4.71.41-1.58,1.81-3.01,3.03-4.26,2.86-2.93,5.78-5.81,8.68-8.72,1.41-1.41,2.81-2.83,4.2-4.27,1.48-1.52,5.8-4.75,3.37-7.02-2.22-2.08-5.41,1.93-6.75,3.28-1.41,1.42-2.82,2.83-4.25,4.23-6.65,6.5-13.22,13.08-20.03,19.4-3.08,2.86-5.5,2.64-7.6.16-2-2.35-1.62-4.69,1.28-7.61,7.54-7.55,15.08-15.09,22.62-22.63,1.06-1.06,1.97-1.75,2.16-3.37.14-1.2-.29-2.26-1.52-2.44-2.07-.31-2.98.48-4.31,1.81-8.87,8.87-17.74,17.76-26.63,26.61-2.92,2.91-6.17,2.84-8.31-.07-1.59-2.17-1.15-4.64,1.44-7.24,9-9.04,18.02-18.06,27.07-27.06,1.47-1.47,2.63-3.11.82-4.8-1.73-1.61-3.22-.19-4.53,1.14-6.94,6.97-13.88,13.92-20.85,20.85-.93.92-1.9,1.87-3.03,2.49-2.55,1.41-5.78.13-6.86-2.58-1.11-2.78.32-4.54,2.08-6.29,11.53-11.5,23.07-22.99,34.5-34.58l4.72,4.74c1.61,1.62,3.72,2.42,5.84,2.42s4.21-.8,5.81-2.39l.91-.91c1.56-1.55,2.42-3.62,2.42-5.82,0-2.07-.77-4.01-2.14-5.53l-10.48-10.58h0l-2.06-2.07,2.8-2.81c4.33-3.3,8.2-4.46,11.38-4.62,5.83-.52,10.99,2.52,10.99,2.52l3.1-3.1,9.84-9.84,30.71,30.7Z"/>
    </g>
  </g>
</svg>